<?xml version="1.0" encoding="UTF-8" standalone="no"?>
<!-- Created with Inkscape (http://www.inkscape.org/) -->

<svg
   xmlns:dc="http://purl.org/dc/elements/1.1/"
   xmlns:cc="http://creativecommons.org/ns#"
   xmlns:rdf="http://www.w3.org/1999/02/22-rdf-syntax-ns#"
   xmlns:svg="http://www.w3.org/2000/svg"
   xmlns="http://www.w3.org/2000/svg"
   xmlns:sodipodi="http://sodipodi.sourceforge.net/DTD/sodipodi-0.dtd"
   xmlns:inkscape="http://www.inkscape.org/namespaces/inkscape"
   width="64px"
   height="64px"
   id="svg3006"
   version="1.1"
   inkscape:version="0.48.4 r9939"
   sodipodi:docname="facebook.png">
  <defs
     id="defs3008">
    <clipPath
       id="clipPath3540"
       clipPathUnits="userSpaceOnUse">
      <path
         id="path3542"
         d="m 1008.44,1149.49 5.33,0 0,-6.63 -5.33,0 0,6.63 z" />
    </clipPath>
    <clipPath
       id="clipPath3524"
       clipPathUnits="userSpaceOnUse">
      <path
         id="path3526"
         d="m 999.883,1149.49 7.457,0 0,-6.63 -7.457,0 0,6.63 z" />
    </clipPath>
    <clipPath
       id="clipPath3508"
       clipPathUnits="userSpaceOnUse">
      <path
         id="path3510"
         d="m 992.797,1149.49 6.115,0 0,-6.63 -6.115,0 0,6.63 z" />
    </clipPath>
    <clipPath
       id="clipPath3492"
       clipPathUnits="userSpaceOnUse">
      <path
         id="path3494"
         d="m 985.378,1149.49 6.456,0 0,-6.63 -6.456,0 0,6.63 z" />
    </clipPath>
    <clipPath
       id="clipPath3164"
       clipPathUnits="userSpaceOnUse">
      <path
         id="path3166"
         d="m 0,1342.54 1100.279,0 L 1100.279,0 0,0 0,1342.54 z" />
    </clipPath>
  </defs>
  <sodipodi:namedview
     id="base"
     pagecolor="#ffffff"
     bordercolor="#666666"
     borderopacity="1.0"
     inkscape:pageopacity="0"
     inkscape:pageshadow="2"
     inkscape:zoom="8.1883518"
     inkscape:cx="15.412292"
     inkscape:cy="24.867855"
     inkscape:current-layer="layer1"
     showgrid="true"
     inkscape:document-units="px"
     inkscape:grid-bbox="true"
     inkscape:window-width="1366"
     inkscape:window-height="706"
     inkscape:window-x="-8"
     inkscape:window-y="-8"
     inkscape:window-maximized="1" />
  <metadata
     id="metadata3011">
    <rdf:RDF>
      <cc:Work
         rdf:about="">
        <dc:format>image/svg+xml</dc:format>
        <dc:type
           rdf:resource="http://purl.org/dc/dcmitype/StillImage" />
        <dc:title></dc:title>
      </cc:Work>
    </rdf:RDF>
  </metadata>
  <g
     id="layer1"
     inkscape:label="Layer 1"
     inkscape:groupmode="layer">
    <rect
       style="fill:#ff325d;fill-opacity:1;fill-rule:evenodd;stroke:none;stroke-width:1.20784163000000010;stroke-linecap:round;stroke-linejoin:round;stroke-miterlimit:4;stroke-opacity:1;stroke-dasharray:none;stroke-dashoffset:0"
       id="rect6053"
       width="33.132202"
       height="41.192436"
       x="14.758883"
       y="10.613302"
       ry="2.0279353" />
    <g
       transform="matrix(1.25,0,0,-1.25,-717.63908,938.53762)"
       inkscape:label="picons-social"
       id="g3134">
      <g
         transform="translate(75.5474,823.1963)"
         id="g3136">
        <path
           id="path3138"
           style="fill:#231f20;fill-opacity:1;fill-rule:nonzero;stroke:none"
           d="M 0,0 14.597,-9.525 24.812,-1.007 10.093,8.078 0,0 z"
           inkscape:connector-curvature="0" />
      </g>
      <g
         transform="translate(90.1445,848.877)"
         id="g3140">
        <path
           id="path3142"
           style="fill:#231f20;fill-opacity:1;fill-rule:nonzero;stroke:none"
           d="M 0,0 -14.597,-9.521 -4.504,-17.603 10.215,-8.519 0,0 z"
           inkscape:connector-curvature="0" />
      </g>
      <g
         transform="translate(125.1709,839.3555)"
         id="g3144">
        <path
           id="path3146"
           style="fill:#231f20;fill-opacity:1;fill-rule:nonzero;stroke:none"
           d="M 0,0 -14.597,9.521 -24.812,1.003 -10.093,-8.081 0,0 z"
           inkscape:connector-curvature="0" />
      </g>
      <g
         transform="translate(100.3594,822.1895)"
         id="g3148">
        <path
           id="path3150"
           style="fill:#231f20;fill-opacity:1;fill-rule:nonzero;stroke:none"
           d="M 0,0 10.214,-8.519 24.812,1.007 14.718,9.085 0,0 z"
           inkscape:connector-curvature="0" />
      </g>
      <g
         transform="translate(100.3901,820.3574)"
         id="g3152">
        <path
           id="path3154"
           style="fill:#231f20;fill-opacity:1;fill-rule:nonzero;stroke:none"
           d="m 0,0 -10.246,-8.496 -4.383,2.863 0,-3.21 L 0,-17.61 l 14.627,8.767 0,3.21 L 10.244,-8.496 0,0 z"
           inkscape:connector-curvature="0" />
      </g>
      <g
         transform="translate(100.3589,435.5)"
         id="g3156">
        <path
           id="path3158"
           style="fill:#231f20;fill-opacity:1;fill-rule:nonzero;stroke:none"
           d="M 0,0 -10.538,-6.504 0,-13.009 10.538,-6.504 0,0 z"
           inkscape:connector-curvature="0" />
      </g>
      <path
         id="path3610"
         style="fill:#121212;fill-opacity:1;fill-rule:nonzero;stroke:none"
         d="m 606.0322,725.52583 -4.264,0 0,-15.207 -6.321,0 0,15.207 -3.005,0 0,5.369 3.005,0 0,3.479 c 0,2.49 1.183,6.377 6.379,6.377 l 4.68,-0.018 0,-5.215 -3.399,0 c -0.554,0 -1.339,-0.277 -1.339,-1.461 l 0,-3.162 4.818,0 -0.554,-5.369 z m -6.519,24.521 c -13.599,0 -24.625,-11.027 -24.625,-24.625 0,-13.599 11.026,-24.623 24.625,-24.623 13.6,0 24.625,11.024 24.625,24.623 0,13.598 -11.025,24.625 -24.625,24.625"
         inkscape:connector-curvature="0" />
    </g>
    <path
       style="fill:#ff325d;stroke:none;fill-opacity:0"
       d="m 35.800912,12.554466 c -1.861846,-0.01257 -3.829977,0.0124 -5.486254,0.966099 -2.444882,1.304242 -3.713275,4.141779 -3.664632,6.846224 -0.03525,1.482177 -0.01238,2.964972 -0.01896,4.447418 -1.256478,0.02513 -2.535943,-0.05022 -3.77804,0.03778 -0.05033,2.228952 -0.0071,4.473704 -0.02159,6.70872 0.382075,0.240524 1.009661,0.04038 1.481441,0.115729 0.758358,0.0083 1.516673,0.02002 2.275011,0.02999 0.01451,6.313825 0.0289,12.627649 0.04318,18.941474 0.385016,0.238691 1.009089,0.02925 1.481532,0.09985 2.153308,-0.02515 4.329636,0.05033 6.468544,-0.03778 0.06433,-6.327223 0.03589,-12.670248 0.06477,-19.003542 1.736108,-0.01429 3.472207,-0.02966 5.208298,-0.04588 0.30486,-0.487534 0.178032,-1.18659 0.304448,-1.757096 0.145666,-1.650162 0.395483,-3.312087 0.464653,-4.957021 -0.621221,-0.222061 -1.343991,-0.07086 -1.999651,-0.129677 -1.344786,-0.0058 -2.689615,-9.55e-4 -4.034419,-0.0026 0.06678,-1.509886 -0.0569,-3.061635 0.167313,-4.547141 0.191958,-0.764323 1.005848,-1.089334 1.7352,-1.02277 1.346409,-0.05022 2.715806,0.04086 4.0479,-0.05397 0.05033,-2.172281 0.0072,-4.360362 0.02159,-6.538708 -0.382085,-0.238684 -1.009724,-0.02925 -1.481531,-0.09985 -1.092932,0.0012 -2.185879,-0.0028 -3.2788,0.0027 z"
       id="path6007"
       inkscape:connector-curvature="0" />
  </g>
</svg>
