<?xml version="1.0" encoding="UTF-8" standalone="no"?>
<!-- Created with Inkscape (http://www.inkscape.org/) -->

<svg
   xmlns:dc="http://purl.org/dc/elements/1.1/"
   xmlns:cc="http://creativecommons.org/ns#"
   xmlns:rdf="http://www.w3.org/1999/02/22-rdf-syntax-ns#"
   xmlns:svg="http://www.w3.org/2000/svg"
   xmlns="http://www.w3.org/2000/svg"
   xmlns:sodipodi="http://sodipodi.sourceforge.net/DTD/sodipodi-0.dtd"
   xmlns:inkscape="http://www.inkscape.org/namespaces/inkscape"
   width="64"
   height="64"
   id="svg3006"
   version="1.1"
   inkscape:version="0.48.4 r9939"
   sodipodi:docname="New document 4">
  <defs
     id="defs3008">
    <clipPath
       id="clipPath3540"
       clipPathUnits="userSpaceOnUse">
      <path
         id="path3542"
         d="m 1008.44,1149.49 5.33,0 0,-6.63 -5.33,0 0,6.63 z"
         inkscape:connector-curvature="0" />
    </clipPath>
    <clipPath
       id="clipPath3524"
       clipPathUnits="userSpaceOnUse">
      <path
         id="path3526"
         d="m 999.883,1149.49 7.457,0 0,-6.63 -7.457,0 0,6.63 z"
         inkscape:connector-curvature="0" />
    </clipPath>
    <clipPath
       id="clipPath3508"
       clipPathUnits="userSpaceOnUse">
      <path
         id="path3510"
         d="m 992.797,1149.49 6.115,0 0,-6.63 -6.115,0 0,6.63 z"
         inkscape:connector-curvature="0" />
    </clipPath>
    <clipPath
       id="clipPath3492"
       clipPathUnits="userSpaceOnUse">
      <path
         id="path3494"
         d="m 985.378,1149.49 6.456,0 0,-6.63 -6.456,0 0,6.63 z"
         inkscape:connector-curvature="0" />
    </clipPath>
    <clipPath
       id="clipPath3164"
       clipPathUnits="userSpaceOnUse">
      <path
         id="path3166"
         d="m 0,1342.54 1100.279,0 L 1100.279,0 0,0 0,1342.54 z"
         inkscape:connector-curvature="0" />
    </clipPath>
  </defs>
  <sodipodi:namedview
     id="base"
     pagecolor="#ffffff"
     bordercolor="#666666"
     borderopacity="1.0"
     inkscape:pageopacity="0"
     inkscape:pageshadow="2"
     inkscape:zoom="5.7900391"
     inkscape:cx="25.113329"
     inkscape:cy="35.855558"
     inkscape:current-layer="layer1"
     showgrid="true"
     inkscape:document-units="px"
     inkscape:grid-bbox="true"
     inkscape:window-width="1366"
     inkscape:window-height="706"
     inkscape:window-x="-8"
     inkscape:window-y="-8"
     inkscape:window-maximized="1" />
  <metadata
     id="metadata3011">
    <rdf:RDF>
      <cc:Work
         rdf:about="">
        <dc:format>image/svg+xml</dc:format>
        <dc:type
           rdf:resource="http://purl.org/dc/dcmitype/StillImage" />
        <dc:title></dc:title>
      </cc:Work>
    </rdf:RDF>
  </metadata>
  <g
     id="layer1"
     inkscape:label="Layer 1"
     inkscape:groupmode="layer">
    <path
       id="path3878"
       style="fill:#121212;fill-opacity:1;fill-rule:nonzero;stroke:none"
       d="m 47.676881,25.642978 c 0.015,0.33375 0.02125,0.6675 0.02125,1.00375 0,10.25125 -7.8025,22.07125 -22.07,22.07125 -4.38125,0 -8.458754,-1.28375 -11.891254,-3.485 0.60625,0.07125 1.22375,0.1075 1.85,0.1075 3.635004,0 6.980004,-1.24 9.633754,-3.32 -3.39375,-0.06375 -6.258754,-2.30625 -7.245004,-5.3875 0.4725,0.09125 0.9575,0.13875 1.458754,0.13875 0.70875,0 1.39375,-0.09375 2.045,-0.27125 -3.550004,-0.71375 -6.223754,-3.85 -6.223754,-7.605 0,-0.035 0,-0.06625 0,-0.1 1.04625,0.58125 2.2425,0.93125 3.515,0.9725 -2.0825,-1.39375 -3.4525,-3.76625 -3.4525,-6.4575 0,-1.4225 0.3825,-2.755 1.05125,-3.9 3.825004,4.69375 9.541254,7.78 15.988754,8.10375 -0.1325,-0.5675 -0.20125,-1.16 -0.20125,-1.7675 0,-4.28375 3.47375,-7.75625 7.7575,-7.75625 2.23125,0 4.2475,0.9425 5.66125,2.44875 1.76875,-0.34625 3.42875,-0.99375 4.9275,-1.8825 -0.58,1.8125 -1.81,3.3325 -3.4125,4.2925 1.57125,-0.18875 3.065,-0.60625 4.45625,-1.2225 -1.03875,1.555 -2.355,2.9225 -3.87,4.01625 M 32.170631,1.067977 c -17.000004,0 -30.7812533,13.783751 -30.7812533,30.781251 0,16.99875 13.7812493,30.77875 30.7812533,30.77875 16.99875,0 30.77875,-13.78 30.77875,-30.77875 0,-16.9975 -13.78,-30.781251 -30.77875,-30.781251"
       inkscape:connector-curvature="0" />
    <path
       style="fill:#ff325d;fill-opacity:1;stroke:none"
       d="m 39.750383,17.991124 c -4.171814,-0.109047 -7.796315,3.791668 -7.617528,7.915207 -0.09028,0.589835 0.480095,1.832438 -0.528696,1.476119 -5.894856,-0.414697 -11.396385,-3.534254 -15.179594,-8.005974 -0.426574,0.184953 -0.496431,1.002173 -0.735067,1.458591 -0.996924,2.729942 -0.177409,5.929048 1.883803,7.941194 0.306835,0.373601 1.421593,1.164505 0.334684,0.833348 -0.847371,-0.113384 -1.696608,-0.533168 -2.52148,-0.688325 -0.339178,0.524573 -0.0065,1.286783 0.08014,1.854769 0.567219,2.635478 2.758489,4.690135 5.236096,5.568123 0.158304,0.05079 0.748515,0.180126 0.270964,0.209902 -0.988558,0.140618 -2.013198,-0.0043 -2.988238,0.110676 0.741689,2.630616 3.166086,4.658805 5.816188,5.23228 0.378181,0.08982 0.850398,0.06552 1.175451,0.194636 -2.603355,2.011291 -5.89206,3.144855 -9.201147,3.135163 -0.416258,0.144129 -1.958917,-0.204717 -1.649477,0.314006 3.519641,2.056216 7.575713,3.342705 11.682598,3.164647 5.814451,0.132845 11.640822,-2.248665 15.609063,-6.506957 3.123117,-3.180282 5.128161,-7.384271 5.970353,-11.737488 0.299192,-1.564555 0.339155,-3.161143 0.338151,-4.749346 1.39082,-1.127101 2.759191,-2.362683 3.705722,-3.888909 -0.18049,-0.386519 -0.727663,0.193701 -1.034244,0.171738 -0.997032,0.317541 -1.99606,0.629592 -3.034035,0.755647 1.415498,-0.970968 2.574491,-2.358419 3.095098,-4.003401 -0.328978,-0.260085 -0.779925,0.279926 -1.13763,0.356196 -1.164972,0.487199 -2.372612,1.016869 -3.617601,1.204711 -0.908577,-0.54414 -1.660523,-1.315629 -2.683242,-1.691997 -1.018248,-0.503175 -2.137707,-0.665701 -3.270337,-0.624556 z"
       id="path5958"
       inkscape:connector-curvature="0" />
  </g>
</svg>
