<?xml version="1.0" encoding="UTF-8" standalone="no"?>
<!-- Created with Inkscape (http://www.inkscape.org/) -->

<svg
   xmlns:dc="http://purl.org/dc/elements/1.1/"
   xmlns:cc="http://creativecommons.org/ns#"
   xmlns:rdf="http://www.w3.org/1999/02/22-rdf-syntax-ns#"
   xmlns:svg="http://www.w3.org/2000/svg"
   xmlns="http://www.w3.org/2000/svg"
   xmlns:sodipodi="http://sodipodi.sourceforge.net/DTD/sodipodi-0.dtd"
   xmlns:inkscape="http://www.inkscape.org/namespaces/inkscape"
   width="64px"
   height="64px"
   id="svg3006"
   version="1.1"
   inkscape:version="0.48.4 r9939"
   sodipodi:docname="facebook-hover.png">
  <defs
     id="defs3008" />
  <sodipodi:namedview
     id="base"
     pagecolor="#ffffff"
     bordercolor="#666666"
     borderopacity="1.0"
     inkscape:pageopacity="0"
     inkscape:pageshadow="2"
     inkscape:zoom="4.0941759"
     inkscape:cx="60.243409"
     inkscape:cy="53.009382"
     inkscape:current-layer="layer1"
     showgrid="true"
     inkscape:document-units="px"
     inkscape:grid-bbox="true"
     inkscape:window-width="1366"
     inkscape:window-height="706"
     inkscape:window-x="-8"
     inkscape:window-y="-8"
     inkscape:window-maximized="1" />
  <metadata
     id="metadata3011">
    <rdf:RDF>
      <cc:Work
         rdf:about="">
        <dc:format>image/svg+xml</dc:format>
        <dc:type
           rdf:resource="http://purl.org/dc/dcmitype/StillImage" />
        <dc:title></dc:title>
      </cc:Work>
    </rdf:RDF>
  </metadata>
  <g
     id="layer1"
     inkscape:label="Layer 1"
     inkscape:groupmode="layer">
    <rect
       style="fill:#ff325d;fill-opacity:1;fill-rule:evenodd;stroke:none"
       id="rect8182"
       width="41.766647"
       height="40.0569"
       x="11.723971"
       y="13.440374"
       ry="0.090306088" />
    <path
       id="path6667"
       style="fill:#121212;fill-opacity:1;fill-rule:nonzero;stroke:none"
       d="m 50.07217,25.156077 c -2.05625,11.585 -13.5425,21.39125 -16.9975,23.6325 -3.45625,2.23625 -6.60875,-0.9 -7.75,-3.27125 -1.31,-2.705 -5.23125,-17.37 -6.25875,-18.58625 -1.0275,-1.21625 -4.10875,1.21625 -4.10875,1.21625 l -1.49375,-1.96375 c 0,0 6.2575,-7.47 11.01875,-8.4075 5.04875,-0.98625 5.04125,7.75375 6.25625,12.61 1.175,4.69625 1.96375,7.38 2.98875,7.38 1.0275,0 2.98875,-2.615 5.13625,-6.63125 2.1525,-4.01875 -0.0925,-7.5675 -4.29625,-5.04375 1.68125,-10.085 17.56125,-12.5125 15.505,-0.935 m -17.83,-23.2012501 c -16.99875,0 -30.7812497,13.7825001 -30.7812497,30.7812501 0,17.0025 13.7824997,30.78125 30.7812497,30.78125 17,0 30.77875,-13.77875 30.77875,-30.78125 0,-16.99875 -13.77875,-30.7812501 -30.77875,-30.7812501"
       inkscape:connector-curvature="0" />
  </g>
</svg>
